<svg id="Layer_1" data-name="Layer 1" xmlns="http://www.w3.org/2000/svg" viewBox="0 0 392.93 130.83"><defs><style>.cls-1{fill:#73c0d8;}.cls-2{fill:#303542;}</style></defs><title>BeregIT_logo</title><polygon class="cls-1" points="358.83 70.12 383.03 66.48 383 65.83 392.93 64.29 392.71 60.56 358.83 65.8 358.83 70.12"/><polygon class="cls-1" points="390.74 33.4 370.75 40.07 376.13 40.07 376.13 42.18 391.22 37.14 390.74 33.4"/><polygon class="cls-1" points="387.16 41.42 386.65 41.58 376.13 43.51 376.13 48.81 387.44 45.22 390.7 44.62 390.43 40.89 387.17 41.49 387.16 41.42"/><polygon class="cls-1" points="358.83 95.04 364.74 96.66 370.08 98.6 371.82 99.23 372.34 95.49 371.35 95.13 371.41 94.64 370.29 94.34 370.32 93.24 386.89 95.25 387.06 91.52 358.83 88.1 358.83 95.04"/><path class="cls-1" d="M478.53,193.87v0l-.2,0L460,195.77v13.65l18.7.13v-3.73l-6.75,0v-1.05h-11l22.84-4.18-.24-3.44,7.84-.81-.15-3.72Zm-1.86,4.19,2.17-.48,1-.1Z" transform="translate(-101.18 -125.38)"/><polygon class="cls-1" points="364.76 59.16 358.83 60.08 358.83 65.16 367.1 62.56 369.99 62.11 369.97 61.66 370.43 61.52 382.64 58.33 382.58 57.7 383.12 57.53 382.78 54.72 386.2 54.06 385.93 50.33 376.13 52.2 376.13 54.79 362.53 54.79 358.83 55.5 358.83 59.28 374.96 56.21 369.52 57.92 364.76 59.16"/><polygon class="cls-1" points="371.41 101.94 358.83 98.2 358.83 102.07 370.99 105.69 371.41 101.94"/><path class="cls-1" d="M467.26,234.63l.35-3.74L460,229v.83H444.27v-4.7l-1-.26L430,218.54l14.24,4.24v-3.87l-4.16-1.24,4.16.28v-7.72l-2.56-.93,2.56,0v-8L429,204.67l-4.2-1.53,19.5-2V187.89l-6.45,1,6.45-1.23v-7.49H426.89V165.53l-.39.38-.68.23,29.62-29.08.7-.68-1.39-3.69L440,147.16l13.91-16-1.59-3.63-19.16,22,8.09-11.28.54-.76-1.87-3.5L417.4,165.45h3v6.4l.16,0-.16.16v7.85H409.68v36h1.17l-.34-.14,2,.14h7.8V218l5.5,2.65-5.5-1.35V227l22.46,6.16L459.46,240l0-.18,2.21.91.08-.52,3.08,1.23.29-1.86,8.62,4.14.69-3.75-15-7.2Zm-50.41-29.91-1.05-.29.91-.28,1.57.57Zm-4-6.33.95-.73-.36-1.23,16.95-2.62Z" transform="translate(-101.18 -125.38)"/><path class="cls-1" d="M491.94,149.71l1-.54-.79-3.76-14.4,7.9-.38-2-1.06.52-1-3.64-.88.6-.56-2.17,12.32-8.5-1-3.75-18.63,12.85-.7-2.67L449.5,155.73l21-15.49-1.05-3.75-31.5,23.24,24.5-24.08L461.05,132,427,165.45h36.26Zm-37.79,13-1.09.54,6.75-4.47.14,0Z" transform="translate(-101.18 -125.38)"/><path class="cls-1" d="M415.35,165.45l14.31-20.68-.75-1.36,6.15-9.62-2-3.4-2.11,3.29L429,130.39,426,135l-2.06-3.14L415.66,146l-.89-1.57,7.31-15.1.4-.85-2.42-3.06-15.94,33,9.82-22.73-2.56-2.89-11.64,26.91,5.17-27.6-3.23-1.57-6.55,35Zm1.27-10,9.77-14.7-14.27,22.33Z" transform="translate(-101.18 -125.38)"/><polygon class="cls-1" points="325.72 40.07 325.72 40.15 325.8 40.07 325.72 40.07"/><polygon class="cls-1" points="296.12 22.86 293.04 20.84 288.23 40.07 291.81 40.07 296.12 22.86"/><polygon class="cls-1" points="293.49 40.07 293.02 39.77 292.95 40.07 293.49 40.07"/><polygon class="cls-1" points="287.78 40.07 287.32 26.1 283.88 26.4 284.33 40.07 287.78 40.07"/><path class="cls-1" d="M420.35,229.85h-6.62l3.65,2.32,3.34,4.49-2.79-2-5-4.77H401.28l1.25,2.67.38,6.47-3.85-9.14h-5.94l.75,1.35.24,5.58-1.45-6.93h-9.38v-8.33l-.19.3.16-.62,0,0v-5.4H394v-36H383.28v-7.64l-3.6-22.69-3.29,1.36,3.73,23.46-6.3-3.35-3.8-3.29-1.23,3.73,2.8,2.42,0,.1.36.19,8.25,7.15-6.57,2.18-7.32-5.5-1.08,3.75,4.19,3.14-9.9,3.28.48,3.75,1.92-.64.18,2.6,15.5-2.84,3.55,2.67-.71,1-.95-.46,0,.23-5.12-1.4-.39,3.74,2.27.62-2,.67-4.81-1.43-.33,2.91-9,1.4.22,3.73,2.68-.42.18,1.41,8-2.68,1.72-.26-4,2-.34.11v.05l-.44.22h-1.18v.53l-12.25,1.89.22,3.73,6.23-1,.4,2.16,5.25-2.58v.07l1,.25-1.49.39.18,1.81-6.63,4.51.31,1.17-6.48,2,.06.47-.44.08.26,3.73,15.77-2.88v0l.79-.17.4-.08.44.77L369,225.54l-1.12.91.23.74-.78,1.43.11.15-4.5,3.46,1.1,3.75,5.49-4.23.07.09.13-.24,5.35-4.12L371,235.17l1.89,2.67-1,1.54,2,3.4.36-.56-.6,2.32,3.06,2.06,3.54-13.76,2.26-3.53-3,19.21,3.3,1.34.65-4.26,2.76,1.62.61-2.72.15,0,0-.46h.82v-3.72l3.34.16,0-.59,2.42,11.59,3.17-1.73-.28-1.37,1.51-.17-.44-10.35,4.27,7.66,1.82,4.33.37-.4,3.14,5.63,2.23-3.25-4.51-8.08-.17-.42,1.85-.28-.13-2.14,3.2,6.83,2.46-3-3.54-7.57,12.45,17.22,1.86-3.51-12.48-17.25,5.37,3.92,8.41,8,.52-1.44,3.4,2.48,4.2,5.64,1-1.87.17.13.28-1,.4-.79-.13-.18.49-1.77-4-2.93-4.66-6.25,29.31,18.65.92-3.75-8.23-5.24L458,252.44l.36-1.82,3.73,1.77.68-3.75-42.41-20.19Zm-50.71-41.21,3.36-1.11.53.4Zm-1.22,26.8,2.82-1.93L373,214Zm11.37-28.66-1.4-.51-.76-.27,4.13-1.37.27,1.74Z" transform="translate(-101.18 -125.38)"/><path class="cls-2" d="M131,168c10.12,0,16.93,8.56,17,16.93a14.29,14.29,0,0,1-6.16,12.14c6.81,3.5,9.57,9.11,9.57,14.54,0,10.39-7.09,20.79-20.61,20.79H101.18V168Zm-14.26,23.27h11.87c2.76,0,4-2.3,4-4.6s-1.38-4.41-3.87-4.41H116.72Zm0,26.22H130.8c3.31,0,5-2.85,5-5.79s-1.66-5.89-5-5.89H116.72Z" transform="translate(-101.18 -125.38)"/><path class="cls-2" d="M205.13,213.08H169.44c1.75,4.6,6.25,6.9,10.67,7a11.19,11.19,0,0,0,8.37-3.4h15.73c-3.86,11-14.35,16.46-24.84,16.28-12.6-.28-25.11-8.74-25.11-25.58,0-17.11,13-25.57,25.94-25.48,12.79.09,25.49,8.56,25.49,25.48A28.43,28.43,0,0,1,205.13,213.08Zm-15.27-11.32c-1.38-5-5.43-7.27-10.12-7.27a9.83,9.83,0,0,0-9.75,7.27Z" transform="translate(-101.18 -125.38)"/><path class="cls-2" d="M223.81,232.4H209.37V182.63h13.06l.55,3.31a15.12,15.12,0,0,1,10.86-4.32,24.7,24.7,0,0,1,5.61.73L239.27,196a16.94,16.94,0,0,0-4.88-.74c-5.24.09-10.58,2.85-10.58,9.57Z" transform="translate(-101.18 -125.38)"/><path class="cls-2" d="M290.33,213.08h-35.7c1.75,4.6,6.26,6.9,10.67,7a11.19,11.19,0,0,0,8.37-3.4h15.74c-3.87,11-14.36,16.46-24.84,16.28-12.61-.28-25.12-8.74-25.12-25.58,0-17.11,13-25.57,25.94-25.48,12.79.09,25.49,8.56,25.49,25.48A29.19,29.19,0,0,1,290.33,213.08Zm-15.28-11.32c-1.38-5-5.42-7.27-10.12-7.27a9.83,9.83,0,0,0-9.75,7.27Z" transform="translate(-101.18 -125.38)"/><path class="cls-2" d="M294.56,207.93c0-14.36,8.09-26,23.92-25.85,4.78,0,9.66,1.28,13,5.51v-5h14.44v46.92c0,18.39-12.69,25.85-25.3,25.85-12.32,0-24.56-7.46-24.56-19.51h15.18c0,3,4.32,5.52,8.92,5.43,5.25-.09,10.86-2.94,11.32-11.68v-2.58c-3.22,3.77-7.91,5.15-12.88,5.15C302.56,232.21,294.56,221.63,294.56,207.93Zm14.54.18c.09,7,5.61,10.39,11.13,10.39s11.22-3.67,11.22-10.57c0-6.63-5.06-12.06-11.22-12.06C312.68,195.87,309,202.13,309.1,208.11Z" transform="translate(-101.18 -125.38)"/></svg>