<svg id="Слой_1" data-name="Слой 1" xmlns="http://www.w3.org/2000/svg" viewBox="0 0 421.45 145.74"><defs><style>.cls-1{fill:#9e191e;}</style></defs><title>blago</title><path class="cls-1" d="M316.06,210.38V154.15c-.05-.31-.93-5.44,4.14-9.78a17.38,17.38,0,0,1,11.3-4.13,10,10,0,0,1,1.7.11h25.59v13.72H332.71v56.31Z" transform="translate(-55.13 -101.44)"/><path class="cls-1" d="M170.1,211.08l-4.17-15H168c2.22,0,3.87-.46,4.9-1.39a5.9,5.9,0,0,0,1.86-3.31,30.29,30.29,0,0,0,.41-5.54V149.63l.24-.32a12.3,12.3,0,0,1,10.73-9.81h36.51v70.41H206V153.28H191.29v38.09a22,22,0,0,1-2,8.82,18.53,18.53,0,0,1-6.52,7.72,19.88,19.88,0,0,1-11.46,3.17Z" transform="translate(-55.13 -101.44)"/><path class="cls-1" d="M397.85,151.64a14.89,14.89,0,0,0-9.58,3,17.88,17.88,0,0,0-5.78,8.17A32.27,32.27,0,0,0,380.56,174a34.5,34.5,0,0,0,1.87,11.45,18,18,0,0,0,5.66,8.25,14.9,14.9,0,0,0,9.76,3.06,15.35,15.35,0,0,0,9.87-3.06,18,18,0,0,0,5.69-8.24A34.86,34.86,0,0,0,415.24,174a32,32,0,0,0-1.92-11.19,18.17,18.17,0,0,0-5.8-8.16,15.05,15.05,0,0,0-9.67-3m0,59c-7.25,0-13.56-1.55-18.75-4.61a29.69,29.69,0,0,1-11.84-13,44,44,0,0,1-3.92-19,42.69,42.69,0,0,1,4-18.9,28.93,28.93,0,0,1,11.85-12.78c5.19-3,11.48-4.51,18.7-4.51a36.37,36.37,0,0,1,18.56,4.56,29.87,29.87,0,0,1,11.95,12.89,41.8,41.8,0,0,1,4,18.74,43,43,0,0,1-4,18.83,30.32,30.32,0,0,1-11.93,13.08,36.21,36.21,0,0,1-18.62,4.66" transform="translate(-55.13 -101.44)"/><path class="cls-1" d="M123.47,196.59h5.65c3.61,0,6.47-.61,8.51-1.81.65-.38,2.6-1.56,2.6-6,0-3.63-1.15-8.45-11.11-8.45h-5.65Zm-16.65,13.79V151.25A12.28,12.28,0,0,1,117.74,140h36.2v13.78H123.47v12.79h6.6c22.65,0,27.41,12.5,27.41,23,0,5-1.4,9.09-4.18,12.26a22.3,22.3,0,0,1-10.82,6.68,51.81,51.81,0,0,1-14.61,1.92Z" transform="translate(-55.13 -101.44)"/><path class="cls-1" d="M261,181.2h15.2l-7.6-21.66Zm25.91,29.18L281.08,195H256l-5.86,15.4H232.72L256,150.62c2.67-5.86,9-10.35,15-10.66h6.56l27.68,70.42Z" transform="translate(-55.13 -101.44)"/><path class="cls-1" d="M450.25,101.44H81.46a114.25,114.25,0,0,0-.15,145.74H450.39a114.24,114.24,0,0,0-.14-145.74M445.07,237H86.62A103,103,0,0,1,65.51,175v-1.2a103,103,0,0,1,21.24-62.13H444.94A103.22,103.22,0,0,1,445.07,237" transform="translate(-55.13 -101.44)"/></svg>