<svg id="Layer_1" data-name="Layer 1" xmlns="http://www.w3.org/2000/svg" viewBox="0 0 939.9 228.1"><defs><style>.cls-1{fill:#f35c43;}</style></defs><title>logo_boo</title><path d="M269.85,372.34a45,45,0,0,1,17.5,17.26,50.07,50.07,0,0,1,6.58,25.69,51.08,51.08,0,0,1-4.22,20.61,55.85,55.85,0,0,1-11.42,17,53.15,53.15,0,0,1-16.88,11.55,50.86,50.86,0,0,1-20.6,4.22H170.05v-182h69.51a47.32,47.32,0,0,1,18.87,3.85,49.44,49.44,0,0,1,26.19,26.19,47.79,47.79,0,0,1,3.85,19.12,39.84,39.84,0,0,1-1.61,11.54,46.14,46.14,0,0,1-4.22,9.81,54.92,54.92,0,0,1-6,8.32A65.55,65.55,0,0,1,269.85,372.34Zm-73.24-10.42h38.48a25.85,25.85,0,0,0,10.18-2,24.72,24.72,0,0,0,8.2-5.58,27.05,27.05,0,0,0,5.46-8.32,26.64,26.64,0,0,0-5.46-28.55A25,25,0,0,0,235.09,310H196.61Zm39.72,83.42A27.79,27.79,0,0,0,248,442.85a32.2,32.2,0,0,0,9.56-6.58,30.5,30.5,0,0,0,6.46-9.56,28.48,28.48,0,0,0,2.36-11.42A29.22,29.22,0,0,0,264,403.62a30.39,30.39,0,0,0-16-16,29.15,29.15,0,0,0-11.67-2.36H196.61v60.09Z" transform="translate(-170.05 -285.95)"/><path d="M423.77,286a88.44,88.44,0,0,1,35.51,7.2,91.53,91.53,0,0,1,55.36,84.65,89.7,89.7,0,0,1-7.08,35.51A90.88,90.88,0,0,1,459.28,462a88.44,88.44,0,0,1-35.51,7.2A87.5,87.5,0,0,1,388.4,462a91.2,91.2,0,0,1-48.16-48.66,89.7,89.7,0,0,1-7.08-35.51,91.26,91.26,0,0,1,55.24-84.65A87.5,87.5,0,0,1,423.77,286Zm0,157.65a58.84,58.84,0,0,0,24.46-5.2,64,64,0,0,0,20.11-14.1,68.19,68.19,0,0,0,13.53-72.22,67.8,67.8,0,0,0-13.53-21.14,63,63,0,0,0-20.11-14.22,58.84,58.84,0,0,0-24.46-5.2,58,58,0,0,0-24.33,5.2,63.49,63.49,0,0,0-20,14.22A68.18,68.18,0,0,0,361,377.8a67,67,0,0,0,18.5,46.5,64.44,64.44,0,0,0,20,14.1A58,58,0,0,0,423.77,443.6Z" transform="translate(-170.05 -285.95)"/><path d="M644.48,286a88.39,88.39,0,0,1,35.5,7.2,91.48,91.48,0,0,1,55.36,84.65,89.87,89.87,0,0,1-7.07,35.51A90.94,90.94,0,0,1,680,462a88.39,88.39,0,0,1-35.5,7.2A87.51,87.51,0,0,1,609.1,462a91.2,91.2,0,0,1-48.16-48.66,89.7,89.7,0,0,1-7.08-35.51,91.26,91.26,0,0,1,55.24-84.65A87.51,87.51,0,0,1,644.48,286Zm0,157.65a58.79,58.79,0,0,0,24.45-5.2A64,64,0,0,0,689,424.3a67,67,0,0,0,18.5-46.5A68.18,68.18,0,0,0,689,330.94a63,63,0,0,0-20.11-14.22,58.79,58.79,0,0,0-24.45-5.2,58,58,0,0,0-24.33,5.2,63.42,63.42,0,0,0-20,14.22,68.11,68.11,0,0,0-18.49,46.86,66.93,66.93,0,0,0,18.49,46.5,64.36,64.36,0,0,0,20,14.1A58,58,0,0,0,644.48,443.6Z" transform="translate(-170.05 -285.95)"/><path class="cls-1" d="M774.57,431.68V286.44h26.31V431.68Zm26.31,11.17v26.32H774.57V442.85Z" transform="translate(-170.05 -285.95)"/><path d="M952.2,336.6v74.22a55.29,55.29,0,0,1-6.9,27.32,56.31,56.31,0,0,1-18.67,20.11,61,61,0,0,1-14.84,6.95,56.56,56.56,0,0,1-33.13,0,60.77,60.77,0,0,1-14.84-6.95,58.31,58.31,0,0,1-18.56-20.11,54.64,54.64,0,0,1-7-27.32V336.6h25.57v74.22A30.23,30.23,0,0,0,866.29,423a31.82,31.82,0,0,0,6.67,9.93,31.32,31.32,0,0,0,10,6.71,30.93,30.93,0,0,0,12.24,2.48,30.07,30.07,0,0,0,12.12-2.48,33.19,33.19,0,0,0,10-6.71,30.67,30.67,0,0,0,6.79-9.93,30.24,30.24,0,0,0,2.48-12.17V336.6Z" transform="translate(-170.05 -285.95)"/><path d="M1043.79,336.35a63.82,63.82,0,0,1,25.64,5.21,68.36,68.36,0,0,1,21.07,14.15,65.63,65.63,0,0,1,14.24,21.11,64.93,64.93,0,0,1,5.21,25.82v64.3h-25.57v-12A70.7,70.7,0,0,1,1065.76,465a66.29,66.29,0,0,1-47.54-1.53,66.3,66.3,0,0,1-35.13-35.13,63.85,63.85,0,0,1-5.21-25.69,64.92,64.92,0,0,1,5.2-25.82,65.87,65.87,0,0,1,35.06-35.26A63.83,63.83,0,0,1,1043.79,336.35Zm.12,106.75a38.57,38.57,0,0,0,15.77-3.24,41.46,41.46,0,0,0,21.47-21.61,38.52,38.52,0,0,0,3.23-15.61,39.08,39.08,0,0,0-3.23-15.86,41.37,41.37,0,0,0-21.47-21.61,39.86,39.86,0,0,0-31.53,0,41.34,41.34,0,0,0-21.48,21.61,39.08,39.08,0,0,0-3.22,15.86,38.51,38.51,0,0,0,3.22,15.61,41.43,41.43,0,0,0,21.48,21.61A38.49,38.49,0,0,0,1043.91,443.1Z" transform="translate(-170.05 -285.95)"/><path d="M571.69,470.16h-.57a41.23,41.23,0,0,1-5.14,6.33,41.74,41.74,0,0,1-12.78,8.75,38.73,38.73,0,0,1-31,0,43.45,43.45,0,0,1-7.59-4.34v.4a40.14,40.14,0,0,1-5.76-4.81,41.23,41.23,0,0,1-5.14-6.33H475.21c.43,1.19.89,2.38,1.4,3.55a66.3,66.3,0,0,0,35.13,35.13,63.85,63.85,0,0,0,25.69,5.21H538a63.85,63.85,0,0,0,25.69-5.21,68.77,68.77,0,0,0,14.21-8.26,65.37,65.37,0,0,0,6.77-5.89,67,67,0,0,0,14.15-21c.51-1.17,1-2.36,1.4-3.55Z" transform="translate(-170.05 -285.95)"/><circle cx="229.97" cy="73.45" r="12.82"/><circle cx="450.62" cy="73.45" r="12.82"/></svg>