<svg id="Ўар_1" data-name="Ўар 1" xmlns="http://www.w3.org/2000/svg" viewBox="0 0 780.07 780.89"><defs><style>.cls-1{fill:#482a7f;}.cls-2{fill:#dc8332;}</style></defs><title>CP_logo 800x800</title><path class="cls-1" d="M205,461.11a26.49,26.49,0,0,0-1.56,8.93v21.33q0,12.78,6.09,19.86t17.75,7.06q13,0,20.09-10t7.13-26.79q0-15.72-6.74-26.12t-20-10.4a23.32,23.32,0,0,0-10.5,2.26,24.36,24.36,0,0,0-7.65,5.87,24.63,24.63,0,0,0-4.66,8m74.65-109.55a28.61,28.61,0,0,0,.79-6.85V331a105.52,105.52,0,0,0-14.46.92,38.78,38.78,0,0,0-11.62,3.3,20.56,20.56,0,0,0-7.73,6.2,15.77,15.77,0,0,0-2.84,9.64c0,5.09,1.46,8.93,4.39,11.48a16.2,16.2,0,0,0,11.09,3.82A20.13,20.13,0,0,0,272.08,362a22.06,22.06,0,0,0,7.61-10.43m69.88,115.67a71.42,71.42,0,0,0-1.42,14.27A67.28,67.28,0,0,0,349.83,497a41,41,0,0,0,4.92,12.4,24.61,24.61,0,0,0,8,8.13,20.69,20.69,0,0,0,11,2.93h.26q11.65,0,18.4-10.8t6.74-28.39a70,70,0,0,0-1.43-14.13,46.86,46.86,0,0,0-4.4-12.53,25,25,0,0,0-7.77-8.92,19.67,19.67,0,0,0-11.54-3.33,20.68,20.68,0,0,0-11.92,3.33,25.61,25.61,0,0,0-8,8.92,44,44,0,0,0-4.53,12.66M647.2,538a9,9,0,0,1-2.07,6.13,7.14,7.14,0,0,1-5.69,2.4H615.59a7.19,7.19,0,0,1-5.72-2.4A9,9,0,0,1,607.8,538V471.11q0-12.8-4.52-18.93c-6.61-8.91-25.29-8.12-31.87.4a24.65,24.65,0,0,0-5.06,15.59V538a9,9,0,0,1-2.07,6.13,7.15,7.15,0,0,1-5.71,2.4H534.73a7.13,7.13,0,0,1-5.7-2.4A9,9,0,0,1,527,538c-1-33.51,1.81-69-3.11-101-.36-2.67-.57-4.45-.65-6.31s-.13-3.06-.13-3.59a6.52,6.52,0,0,1,1.29-4.42,8.78,8.78,0,0,1,4.41-2.25l22-5.87a6.17,6.17,0,0,1,2.32-.52h1.3a4.42,4.42,0,0,1,4.15,2.25,16.83,16.83,0,0,1,1.81,6l1.56,12h.78a39.59,39.59,0,0,1,5.19-6.92c16-17.75,49.62-19.56,66.34-2a44.4,44.4,0,0,1,9.47,16.4q3.46,10.11,3.48,24.5ZM590.86,383.25a8.84,8.84,0,0,1-2.08,6.05,7.09,7.09,0,0,1-5.67,2.39H559.38a7.1,7.1,0,0,1-5.69-2.39,8.82,8.82,0,0,1-2.05-6.05V318q0-12.68-4.64-19.27c-6.52-9.25-33-8.69-40.08-.66a20.78,20.78,0,0,0-5.3,14.39v34.63c.29,3.83-.27,7.05-3.79,6.53-5.6-2.09-12.25-4.31-18.57-4.31-8.43-.6-17.21-.41-16.86-6.63v-124a11.17,11.17,0,0,1,2.46-7.26,9.89,9.89,0,0,1,6.82-3.56l14.72-2.37a20.85,20.85,0,0,1,4-.66c1.27-.09,2.1-.13,2.44-.13a9.11,9.11,0,0,1,6.33,2.23,8.06,8.06,0,0,1,2.45,6.21v65h.51c11.73-16.5,43.51-22.17,62-15.58a34.2,34.2,0,0,1,14.07,9.51A46.19,46.19,0,0,1,587.49,289c2.25,6.85,3.37,15.14,3.37,24.82ZM462.78,452c12.69,3.56,27.81-1.44,33.83-5.06.21-.39,3.08-1.67,3.08,1.6V538a9,9,0,0,1-2.08,6.13,7.14,7.14,0,0,1-5.7,2.4H468.07a7.13,7.13,0,0,1-5.7-2.4A9,9,0,0,1,460.3,538v-83.1c0-2.38.3-3.57,2.48-2.89M441,273a9.47,9.47,0,0,1-.13,1.59c-.09.52-.21,1.22-.38,2.1l-3.1,13.2q-1,4.23-4.65,4.23a5.86,5.86,0,0,1-1.67-.27c-.6-.17-1.16-.34-1.67-.52-8.59-3.09-21.52-5.66-30.88-5.66q-7.23,0-11.1,2.77a8.81,8.81,0,0,0-3.87,7.52c0,3,1.46,5.54,4.39,7.66s8.25,4.5,16,7.14q18,6.32,26.05,15.82t8,23.77a38.15,38.15,0,0,1-13.67,30.09q-13.68,11.87-40.77,11.88a102.93,102.93,0,0,1-18.45-1.58,71.28,71.28,0,0,1-15.35-4.5,12.72,12.72,0,0,1-3.61-2.11c-1.38-1.05-2.06-2.81-2.06-5.28a8.42,8.42,0,0,1,.13-1.58c.08-.53.2-1.14.38-1.85L348,363.71c.52-1.95,1.21-3.21,2.07-3.83a4.8,4.8,0,0,1,2.84-.93,7.21,7.21,0,0,1,1.94.27l1.67.52q6.45,2.38,13.42,4.37a50.16,50.16,0,0,0,13.67,2c6,0,10.31-.93,12.9-2.78a9,9,0,0,0,3.87-7.78,9.83,9.83,0,0,0-3.74-8q-3.73-3-14.58-6.75-19.86-6.86-28-17t-8.13-21.52a39.34,39.34,0,0,1,3.61-16.76,40.25,40.25,0,0,1,10.32-13.59,47.32,47.32,0,0,1,16.25-9,67.08,67.08,0,0,1,21.16-3.17c11.89,0,27.11,2.1,38.11,6.19a14.76,14.76,0,0,1,3.61,2c1.37,1,2.06,2.68,2.06,5.14M326,432.06a62.11,62.11,0,0,1,21.51-13.87,75.61,75.61,0,0,1,27.86-4.94,68.57,68.57,0,0,1,26.44,4.94,59.42,59.42,0,0,1,20.34,13.73,61.69,61.69,0,0,1,13.09,21.19,76.43,76.43,0,0,1,4.67,27.06q0,17.85-5.71,30.92a63,63,0,0,1-15,21.6,60.53,60.53,0,0,1-21.24,12.66,74.86,74.86,0,0,1-24.62,4.14A72.59,72.59,0,0,1,347.37,545a59.73,59.73,0,0,1-34.87-34.39,75.16,75.16,0,0,1-5-28.27,80.89,80.89,0,0,1,4.79-28.51A59.86,59.86,0,0,1,326,432.06m-4.24-50.14c0,3.69-1.89,5.9-5.67,6.6l-22.2,5a6.24,6.24,0,0,1-2.31.53h-1.3a4.4,4.4,0,0,1-4.12-2.24,16.28,16.28,0,0,1-1.81-5.94l-1.55-7.13H282a40.46,40.46,0,0,1-15.47,11.75,50.85,50.85,0,0,1-20.65,4.09,42.69,42.69,0,0,1-17.15-3.3A37.82,37.82,0,0,1,216,382.45a40.32,40.32,0,0,1-8-12.67A39.46,39.46,0,0,1,205.13,355q0-12.66,5.28-21.65a41.17,41.17,0,0,1,15-14.64,75.75,75.75,0,0,1,23.35-8.45,153.64,153.64,0,0,1,30.45-2.77v-6.07a14.81,14.81,0,0,0-.91-5.14,10.28,10.28,0,0,0-3.35-4.49,18.4,18.4,0,0,0-7-3.17,47.06,47.06,0,0,0-11.74-1.19A62.41,62.41,0,0,0,242.28,289a84.87,84.87,0,0,0-12.9,4,26.09,26.09,0,0,1-2.71.92,9.88,9.88,0,0,1-2.71.4c-2.23,0-3.7-1.24-4.38-3.7l-3.1-11.35a13.21,13.21,0,0,1-.77-4q0-3.69,1.93-5.28a12,12,0,0,1,3.49-2.11,104.85,104.85,0,0,1,42.05-8.19q15.75,0,26.32,3.57a42.28,42.28,0,0,1,17,10.15,37.28,37.28,0,0,1,9.15,16,74.36,74.36,0,0,1,2.72,20.73c.69,20.85-4.18,37.6,2.06,62.55a36.2,36.2,0,0,1,.91,5.15c.25,2.2.38,3.56.38,4.09m-109.84-137L197,256.25c-4.4,3.34-8.82-1-10.22-1.91a64.81,64.81,0,0,0-56.72-6.52,49.54,49.54,0,0,0-17.55,11,50.16,50.16,0,0,0-11.74,18.34Q96.52,288.22,96.5,303q0,26.64,14.58,42.23T152,360.8a106.32,106.32,0,0,0,11.74-.65,82,82,0,0,0,11.74-2.26c1-.35,2-.65,3-.92a10.27,10.27,0,0,1,2.72-.39q4.11,0,4.89,3.7l4.14,17.15a15.23,15.23,0,0,1,.77,3.16,22.92,22.92,0,0,1,.25,2.39,4.62,4.62,0,0,1-2.06,4.22,13.6,13.6,0,0,1-4.38,1.85,134.67,134.67,0,0,1-16.51,3.7,136.12,136.12,0,0,1-21.94,1.58q-22.45,0-39.6-6.86a79.74,79.74,0,0,1-28.52-18.75A78,78,0,0,1,61,340.48a105.06,105.06,0,0,1-5.81-35.37q0-22.69,7.49-40.26A85.22,85.22,0,0,1,83,235.42,86.52,86.52,0,0,1,113,217.33a109.52,109.52,0,0,1,37.16-6.19c34.95,0,54.71,14.81,61.89,24.26,1.06,1.39,4.52,6-.16,9.52M159.69,427.13q0-5.61,5.69-6.67l22.55-5.87a6.3,6.3,0,0,1,2.33-.52h1.31a4.41,4.41,0,0,1,4.13,2.25,16.82,16.82,0,0,1,1.82,6l1.56,12h.51a47.56,47.56,0,0,1,17.62-15.59q10.64-5.48,24.62-5.48a46.29,46.29,0,0,1,20,4.54,50.1,50.1,0,0,1,16.85,13.07,63.92,63.92,0,0,1,11.53,20.92,85.07,85.07,0,0,1,4.29,27.85q0,17.87-4.68,30.93a66,66,0,0,1-12.3,21.73A49.53,49.53,0,0,1,260,545.22a51.11,51.11,0,0,1-20.47,4.27A44.86,44.86,0,0,1,217,543.88q-9.86-5.61-14.25-12h-1l-.27,72.26c.17,2.84.26,5.14.26,6.92v3.2q0,5.07-2.59,7.08a13.88,13.88,0,0,1-6.74,2.52l-15,2.4a21.9,21.9,0,0,1-4,.67c-1.29.09-2.12.13-2.46.13a9,9,0,0,1-6.35-2.27,8.08,8.08,0,0,1-2.46-6.26c-1.21-53.94,4-128.07-1.55-181-.35-2.65-.56-4.93-.65-6.79s-.12-3.06-.12-3.59M790,400C790,184.4,615.38,9.56,400,9.56S10,184.4,10,400,184.62,790.44,400,790.44a387.74,387.74,0,0,0,204.58-58c7.91-4.88,8.09-5.22,7.63-6.41-.09-.24-.63,0-8.24,3.61a379.54,379.54,0,0,1-373.41-23.28c-6.93-4.54-9.31-5.47-8.89-6.75.37-1.12,2.57,1.2,9.79,5.23a377,377,0,0,0,147.71,45.92C537.23,766,681.39,683.05,749.5,551.46c1.27-3,0-3.94-3.6-3.15-22.28,3.18-45.82-.18-54.12-11.63q-9-12.52-9.06-36V445.52H672.09a8.41,8.41,0,0,1-6-2.14,7.51,7.51,0,0,1-2.34-5.87V424.73a7.49,7.49,0,0,1,2.34-5.87,8.45,8.45,0,0,1,6-2.14h10.63V397.26a10.33,10.33,0,0,1,2.45-7.07,12.88,12.88,0,0,1,6.89-3.86l13.2-3.2c1.56-.35,3-.61,4.4-.8s2.25-.27,2.6-.27a9,9,0,0,1,6.34,2.27,8.07,8.07,0,0,1,2.47,6.27v25.59h24.87a6.29,6.29,0,0,1,5.08,2,7.5,7.5,0,0,1,1.67,4.93c0,.18-.05.8-.13,1.87a27.66,27.66,0,0,1-.39,2.92l-1.81,10.66c-.87,5-3.55,7.47-8,7.47h-21v48.34q0,12,3.37,16.73c11.9,8.18,40.2,3.13,48-13.73,9-26.16,13.71-49.95,16.57-78.6.21-2.22.41-4.43.59-6.65.13-4,.22-8.07.22-12.13" transform="translate(-9.96 -9.56)"/><path class="cls-2" d="M477.15,371.69A30.33,30.33,0,1,1,446.83,402a30.31,30.31,0,0,1,30.32-30.31" transform="translate(-9.96 -9.56)"/></svg>