<svg id="Слой_1" data-name="Слой 1" xmlns="http://www.w3.org/2000/svg" viewBox="0 0 443.03 127.33"><defs><style>.cls-1{fill:#345ca6;}.cls-2{fill:#cc387d;}</style></defs><title>finme</title><g id="Logo_Ua"><path class="cls-1" d="M258,392.28c-20.29,0-40.69,11.52-40.69,42.44v38.55A10,10,0,0,0,227.46,483a9.9,9.9,0,0,0,9.9-9.77v-39c0-16,8.5-22.41,20.66-22.41s20.65,6.39,20.65,22.41v39c0,5.38,4.75,9.77,10.14,9.77a9.82,9.82,0,0,0,9.89-9.77V434.72c0-30.92-20.41-42.44-40.68-42.44" transform="translate(-76.49 -357.34)"/><path class="cls-2" d="M519.51,428.47c0-21-13.64-35.8-37.94-35.8-26.66,0-43.05,18.39-43.05,46.43,0,29,15,45.56,42.81,45.56,5.88,0,20.78-.74,30.79-10a10.15,10.15,0,0,0,3.63-7.27c0-4.12-3.63-8.39-7.89-8.39a10.85,10.85,0,0,0-6.37,2.39c-6.77,5.38-13,6.62-18.15,6.62-12.4,0-22.67-6.62-24-20.77h47.06c9.9,0,13.15-7,13.15-18.77M500,431H459.3c1.25-14.14,9.64-21.91,22.27-21.91,11,0,18.66,7.27,18.66,18.15A19.68,19.68,0,0,1,500,431" transform="translate(-76.49 -357.34)"/><path class="cls-1" d="M172.61,409.06H116.79V390.65c0-11.38,6.14-14.64,13.27-14.64,4.26,0,7.51,2.13,10.76,4.51,4.64,3.38,9.4,2.26,12.16-.5a9.5,9.5,0,0,0-.26-13.77,33.2,33.2,0,0,0-24.54-8.88c-23.59.86-31,18.23-31.15,38.17h0v13.51H86.25c-5.51,0-9.76,3.13-9.76,8.52s4.25,8.64,9.76,8.64H97v47A9.91,9.91,0,0,0,107,483a9.78,9.78,0,0,0,9.76-9.77v-47h52.46c7.25,0,11.63,2.75,11.63,12.76v34.29a9.89,9.89,0,0,0,19.78,0V435.6c0-20.53-9.64-26.54-28-26.54" transform="translate(-76.49 -357.34)"/><path class="cls-1" d="M191,366.62A15.46,15.46,0,1,0,206.41,382,15.42,15.42,0,0,0,191,366.62" transform="translate(-76.49 -357.34)"/><path class="cls-2" d="M393.2,392.28c-10.14,0-18.15,4.14-23.66,12.78-5.5-8.64-13.52-12.78-23.66-12.78-18.77,0-33,10.65-33,34.56v46.43a9.89,9.89,0,0,0,19.78,0v-47c0-12.4,7.25-15.53,13.52-15.53s13.52,3.13,13.52,15.53v47a9.89,9.89,0,0,0,19.77,0v-47c0-12.4,7.27-15.53,13.52-15.53s13.52,3.13,13.52,15.53v47a9.89,9.89,0,0,0,19.78,0V426.84c0-23.91-14.27-34.56-33.05-34.56" transform="translate(-76.49 -357.34)"/></g></svg>