<svg id="Слой_1" data-name="Слой 1" xmlns="http://www.w3.org/2000/svg" viewBox="0 0 351.87 167.17"><defs><style>.cls-1{fill:#262424;}.cls-2{fill:#f6d330;}</style></defs><title>finX</title><polygon class="cls-1" points="0.7 1.22 1.15 1.22 0 1.02 0 167.17 4.73 166.4 0.7 166.4 0.7 1.22"/><path d="M327.35,371.12l-204.2-32.49h-.38V503.82h4.09L327.35,471Zm-126.69,22-30-1v21.56l30-.64v22.25l-30,2.43v46l-28.85,4.8V353.66l58.9,9.78Zm33.39,80.32-24.11,3.77V364.85l24.11,3.9Zm74-12.21-13.49,2.23L268,431.94v35.81l-24.69,4V370.35l11.38,1.79,32.49,41.12V377.45L308,380.77Z" transform="translate(-122.07 -337.41)"/><polygon class="cls-1" points="351.48 1.22 351.48 165.96 351.87 166.08 351.87 0 347.01 1.22 351.48 1.22"/><path d="M469.07,338.63,337.59,371.18v99.64l136,32.55V338.63ZM411.52,475.3l-18-28.08-14.26,20.34-29.16-7.29,25.58-39.14-26.48-39.78L379,374.06l14.9,20.14,19.18-28.52,46-11.25-46.69,66.12,46.69,66.58Z" transform="translate(-122.07 -337.41)"/><polygon class="cls-2" points="336.77 17.07 290.73 28.33 271.67 56.79 257.09 36.65 227.22 43.94 253.76 83.65 227.93 122.85 257.15 130.14 271.41 109.81 289.58 137.88 336.77 149.71 290.02 83.2 336.77 17.07"/><polygon class="cls-2" points="165.19 75.85 132.7 34.73 121.32 32.94 121.38 134.3 146 130.4 146 94.52 172.54 126.05 186.04 123.81 186.04 43.42 165.19 40.03 165.19 75.85"/><polygon class="cls-2" points="87.94 139.86 112.05 136.03 112.05 31.34 87.94 27.44 87.94 139.86"/><polygon class="cls-2" points="19.7 151.12 48.54 146.39 48.54 100.34 78.6 97.91 78.6 75.66 48.54 76.3 48.54 54.74 78.6 55.7 78.6 25.77 19.7 16.24 19.7 151.12"/></svg>