<svg id="Слой_1" data-name="Слой 1" xmlns="http://www.w3.org/2000/svg" viewBox="0 0 441.29 136.96"><defs><style>.cls-1{fill:#fff;}.cls-2{fill:#63ad66;}.cls-3{fill:#7fe094;}.cls-4{fill:#dc4848;}.cls-5{fill:#e38181;}.cls-6{fill:#333;}</style></defs><title>miloan</title><path class="cls-1" d="M175.27,460v-2.6a112.2,112.2,0,0,1-79.52-33.07l-1.88,1.87-2,2a117.6,117.6,0,0,0,83.36,34.67Z" transform="translate(-77.35 -352.52)"/><path class="cls-2" d="M91.9,428.16,80.46,439.59A10.55,10.55,0,0,0,81,455a147.85,147.85,0,0,0,20.15,14.46,144.16,144.16,0,0,0,63,19.95h.11a10.35,10.35,0,0,0,11.05-10.38V462.83A117.6,117.6,0,0,1,91.9,428.16" transform="translate(-77.35 -352.52)"/><path class="cls-3" d="M166.19,462.44l-2.1,27h.16a10.36,10.36,0,0,0,11-10.38V462.83c-3,0-6.07-.16-9.07-.39" transform="translate(-77.35 -352.52)"/><path class="cls-4" d="M166.07,354.12l-70.32,70.2a112.2,112.2,0,0,0,79.52,33.07l.08-99.41a5.44,5.44,0,0,0-9.28-3.86" transform="translate(-77.35 -352.52)"/><path class="cls-5" d="M174.56,355.19,166.62,457c2.86.22,5.73.37,8.65.37l.08-99.42a5.39,5.39,0,0,0-.79-2.78" transform="translate(-77.35 -352.52)"/><path class="cls-6" d="M274.57,457.41a1.12,1.12,0,0,1-.19.66,1.31,1.31,0,0,1-.68.45,7,7,0,0,1-1.24.28,13,13,0,0,1-2,.12,13.21,13.21,0,0,1-1.92-.12,6.28,6.28,0,0,1-1.27-.28,1.26,1.26,0,0,1-.65-.45,1.12,1.12,0,0,1-.19-.66V404.23h-.1l-21.52,53.42a1.51,1.51,0,0,1-.4.56,2.16,2.16,0,0,1-.76.41,5.6,5.6,0,0,1-1.18.23,15.09,15.09,0,0,1-1.62.07,13.73,13.73,0,0,1-1.7-.09,5.81,5.81,0,0,1-1.18-.26,2.26,2.26,0,0,1-.73-.4,1.17,1.17,0,0,1-.36-.52l-20.57-53.42h-.05v53.18a1.12,1.12,0,0,1-.2.66,1.24,1.24,0,0,1-.67.45,7,7,0,0,1-1.27.28,13.48,13.48,0,0,1-2,.12,13.17,13.17,0,0,1-1.95-.12,6.25,6.25,0,0,1-1.24-.28,1.16,1.16,0,0,1-.63-.45,1.27,1.27,0,0,1-.17-.66V401.26a3.39,3.39,0,0,1,1.06-2.83,3.63,3.63,0,0,1,2.35-.86h5a11.16,11.16,0,0,1,2.68.29,6,6,0,0,1,2,.89,5.13,5.13,0,0,1,1.44,1.56,11.46,11.46,0,0,1,1,2.22l17.46,44.22h.23l18.17-44.08a13.91,13.91,0,0,1,1.16-2.41,6.32,6.32,0,0,1,1.36-1.58,5,5,0,0,1,1.65-.85,7.93,7.93,0,0,1,2.12-.26h5.22a4.18,4.18,0,0,1,1.37.22,2.82,2.82,0,0,1,1.1.65,3.77,3.77,0,0,1,.75,1.14,4.37,4.37,0,0,1,.28,1.68Z" transform="translate(-77.35 -352.52)"/><path class="cls-6" d="M298.92,457.41a1.12,1.12,0,0,1-.19.66,1.21,1.21,0,0,1-.66.45,6.37,6.37,0,0,1-1.25.28,15.82,15.82,0,0,1-3.89,0,6.57,6.57,0,0,1-1.28-.28,1.29,1.29,0,0,1-.66-.45,1.19,1.19,0,0,1-.19-.66V398.8a1.09,1.09,0,0,1,.22-.66,1.42,1.42,0,0,1,.7-.45,8.38,8.38,0,0,1,1.28-.28,12.43,12.43,0,0,1,1.86-.12,13.22,13.22,0,0,1,2,.12,7.19,7.19,0,0,1,1.25.28,1.21,1.21,0,0,1,.66.45,1.14,1.14,0,0,1,.19.66Z" transform="translate(-77.35 -352.52)"/><path class="cls-6" d="M346.82,455.1a11.52,11.52,0,0,1-.09,1.58,3.81,3.81,0,0,1-.31,1.09,1.61,1.61,0,0,1-.52.66,1.26,1.26,0,0,1-.73.21h-27a3.35,3.35,0,0,1-2.06-.73,3,3,0,0,1-1-2.57V398.8a1.21,1.21,0,0,1,.18-.66,1.28,1.28,0,0,1,.67-.45,7.26,7.26,0,0,1,1.27-.28,15.82,15.82,0,0,1,3.89,0,7.19,7.19,0,0,1,1.25.28,1.28,1.28,0,0,1,.67.45,1.21,1.21,0,0,1,.18.66v52.81h21.9a1.26,1.26,0,0,1,.73.21,1.66,1.66,0,0,1,.52.61,3.25,3.25,0,0,1,.31,1.07,12.05,12.05,0,0,1,.09,1.6" transform="translate(-77.35 -352.52)"/><path class="cls-6" d="M404.82,427.4a47.08,47.08,0,0,1-1.75,13.35,28,28,0,0,1-5.21,10.13,22.8,22.8,0,0,1-8.71,6.42,30.92,30.92,0,0,1-12.22,2.23,31.46,31.46,0,0,1-11.92-2,20.9,20.9,0,0,1-8.3-6,25.42,25.42,0,0,1-4.88-9.72,50.24,50.24,0,0,1-1.61-13.35A45.93,45.93,0,0,1,352,415.32a27.36,27.36,0,0,1,5.23-10,23.19,23.19,0,0,1,8.73-6.37,34.76,34.76,0,0,1,24-.21,21.25,21.25,0,0,1,8.33,5.92,25,25,0,0,1,4.95,9.63,48,48,0,0,1,1.63,13.14m-8.59.56a47.34,47.34,0,0,0-.92-9.65,22.17,22.17,0,0,0-3.06-7.74,14.75,14.75,0,0,0-5.73-5.11,19.21,19.21,0,0,0-8.86-1.85,18,18,0,0,0-8.86,2,16.62,16.62,0,0,0-5.82,5.28,22.16,22.16,0,0,0-3.21,7.72,43.48,43.48,0,0,0-1,9.27,51.72,51.72,0,0,0,.89,9.91,22.12,22.12,0,0,0,3,7.81,14.43,14.43,0,0,0,5.68,5.1,19.59,19.59,0,0,0,8.93,1.81,18.52,18.52,0,0,0,9-2,16.25,16.25,0,0,0,5.84-5.35,22.62,22.62,0,0,0,3.16-7.81,45.06,45.06,0,0,0,.94-9.4" transform="translate(-77.35 -352.52)"/><path class="cls-6" d="M462.3,455.76a6,6,0,0,1,.4,1.68,1.14,1.14,0,0,1-.35,1,2.33,2.33,0,0,1-1.25.43c-.59.06-1.36.09-2.34.09s-1.75,0-2.34-.07a5.29,5.29,0,0,1-1.31-.23,1.42,1.42,0,0,1-.67-.45,4.18,4.18,0,0,1-.4-.71l-5.23-14.87h-25.4l-5,14.68a2.5,2.5,0,0,1-.37.73,1.8,1.8,0,0,1-.69.52,4.42,4.42,0,0,1-1.28.31,20.33,20.33,0,0,1-2.14.09,17,17,0,0,1-2.24-.12,2.19,2.19,0,0,1-1.23-.44,1.2,1.2,0,0,1-.33-1,5.81,5.81,0,0,1,.4-1.68L431,399a2.42,2.42,0,0,1,.5-.85,2.06,2.06,0,0,1,.89-.52,7.43,7.43,0,0,1,1.51-.26c.62,0,1.4-.07,2.34-.07s1.84,0,2.5.07a8.06,8.06,0,0,1,1.61.26,2.18,2.18,0,0,1,.94.54,2.63,2.63,0,0,1,.52.88ZM436,405.69h0l-10.53,30.44h21.24Z" transform="translate(-77.35 -352.52)"/><path class="cls-6" d="M518.65,455.29a3.68,3.68,0,0,1-.32,1.6,3.16,3.16,0,0,1-.83,1.09,3.19,3.19,0,0,1-1.15.61,4.25,4.25,0,0,1-1.27.19H512.4a8.62,8.62,0,0,1-2.22-.26,5,5,0,0,1-1.81-.94,9.28,9.28,0,0,1-1.7-1.87,23.89,23.89,0,0,1-1.82-3L486.22,418q-1.46-2.68-2.94-5.64t-2.76-5.73h-.1q.09,3.39.14,6.93c0,2.37.05,4.71.05,7v36.85a1.15,1.15,0,0,1-.2.64,1.29,1.29,0,0,1-.67.47,6.55,6.55,0,0,1-1.25.28,16.15,16.15,0,0,1-3.93,0,5.85,5.85,0,0,1-1.22-.28,1.27,1.27,0,0,1-.65-.47,1.14,1.14,0,0,1-.19-.64V401.06a3.15,3.15,0,0,1,1.07-2.69,3.82,3.82,0,0,1,2.33-.8h4a9.8,9.8,0,0,1,2.36.24,5.12,5.12,0,0,1,1.71.78,6.58,6.58,0,0,1,1.45,1.51,18.76,18.76,0,0,1,1.49,2.43l14.32,26.8c.88,1.64,1.73,3.23,2.55,4.79s1.61,3.1,2.38,4.6l2.25,4.46q1.13,2.2,2.21,4.42h.05q-.09-3.74-.12-7.77t0-7.76V398.94a1.06,1.06,0,0,1,.2-.61,1.67,1.67,0,0,1,.67-.5,4.32,4.32,0,0,1,1.25-.3,15.53,15.53,0,0,1,2-.1,14.76,14.76,0,0,1,1.89.1,4.08,4.08,0,0,1,1.25.3,1.67,1.67,0,0,1,.65.5,1.06,1.06,0,0,1,.2.61Z" transform="translate(-77.35 -352.52)"/><path class="cls-6" d="M163.36,440.58a5.12,5.12,0,0,1-9.49-3.85c1.07-2.62,9.74-10.36,9.74-10.36s.82,11.59-.25,14.21" transform="translate(-77.35 -352.52)"/><path class="cls-6" d="M126.7,425.69a5.12,5.12,0,0,1-9.49-3.85c1.07-2.62,9.74-10.36,9.74-10.36s.82,11.59-.25,14.21" transform="translate(-77.35 -352.52)"/><path class="cls-6" d="M157,403.69a5.12,5.12,0,1,1-9.49-3.85c1.07-2.62,9.74-10.37,9.74-10.37s.81,11.6-.25,14.22" transform="translate(-77.35 -352.52)"/></svg>