<svg id="Слой_1" data-name="Слой 1" xmlns="http://www.w3.org/2000/svg" viewBox="0 0 527.69 331.27"><defs><style>.cls-1{fill:#444;}.cls-2{fill:red;}</style></defs><title>Red_Line_Foundation_RGB</title><path class="cls-1" d="M211.37,382.85H195.29l-.64-1.43c-1.28-2.85-1.93-5.53-1.93-12.25v-11c0-8.27-3-11.35-11.06-11.35h-4.84v36H161.66V346.26h-6.75V332.17h6.75V214.1h23c15.29,0,23,8,23,23.62V320c0,9-2.75,15.35-8.18,19,5.58,3.59,8.31,10,8.31,19.4V369.3c0,3.88.12,7.31,1.56,10Zm-34.55-50.3h5.24c8,0,10.66-2.6,10.66-10.29V238.65c0-8.54-3.31-10.29-8.28-10.29h-7.62Z" transform="translate(-154.91 -132.84)"/><path class="cls-1" d="M274.79,382.85H231.88V214.1h42.91v14.26H247v64.5h22.59V307H247v61.6h27.75Z" transform="translate(-154.91 -132.84)"/><path class="cls-1" d="M321,382.85h-24.1V214.1H321c15.11,0,23.43,9.05,23.43,25.48V357.51C344.4,373.85,336.08,382.85,321,382.85ZM312,368.59h8.8c3.67,0,8.55-1.11,8.55-10.68V239.05c0-9.47-4.64-10.69-8.68-10.69H312Z" transform="translate(-154.91 -132.84)"/><path class="cls-1" d="M509.72,382.85H468.14V214.1h15.15V368.59h26.43Z" transform="translate(-154.91 -132.84)"/><path class="cls-1" d="M547,382.85H531.82V214.1H547Z" transform="translate(-154.91 -132.84)"/><path class="cls-1" d="M617.54,382.85H596.82L583.18,267.56V382.85H569.09V214.1h20.72l13.77,116.4V214.1h14Z" transform="translate(-154.91 -132.84)"/><path class="cls-1" d="M682.6,382.85H639.69V214.1H682.6v14.26H654.85v64.5h22.6V307h-22.6v61.6H682.6Z" transform="translate(-154.91 -132.84)"/><rect class="cls-2" x="242.52" width="17.68" height="331.27"/><path class="cls-1" d="M472.53,464.11h-4.39V433.3h10.62v3.17h-6.23v10.92h5v3.18h-5Z" transform="translate(-154.91 -132.84)"/><path class="cls-1" d="M496,464.11c-3.74,0-6-1.84-6-4.91V437.88c0-3.08,2.22-4.91,6-4.91s6,1.83,6,4.91V459.2C501.94,462.27,499.7,464.11,496,464.11Zm0-28c-.48,0-1.6,0-1.6,1.65v21.5c0,1.65,1.08,1.65,1.6,1.65s1.6,0,1.6-1.65v-21.5C497.55,436.14,496.47,436.14,496,436.14Z" transform="translate(-154.91 -132.84)"/><path class="cls-1" d="M519,464.11c-3.65,0-5.83-1.84-5.83-4.94V433.11h4.35v26.16c0,1.64,1,1.64,1.58,1.64s1.54,0,1.54-1.64V433.11h4.23v26.06C524.86,462.27,522.67,464.11,519,464.11Z" transform="translate(-154.91 -132.84)"/><path class="cls-1" d="M548.34,464.11h-5.65l-2.44-15.66v15.66h-4.14V433.3h5.65l2.47,15.86V433.3h4.11Z" transform="translate(-154.91 -132.84)"/><path class="cls-1" d="M565.67,464.11h-6.08V433.3h6.08c3.77,0,5.94,1.77,5.94,4.87v21.1C571.61,462.35,569.44,464.11,565.67,464.11ZM564,460.94h1.66c.84,0,1.61-.2,1.61-1.6V438.07c0-1.47-.85-1.6-1.64-1.6H564Z" transform="translate(-154.91 -132.84)"/><path class="cls-1" d="M596.78,464.11h-4.4l-.87-6.46H587.8l-.84,6.46h-4.23l4.39-30.81h5.28Zm-8.57-9.6h2.88l-1.46-10.92Z" transform="translate(-154.91 -132.84)"/><path class="cls-1" d="M616.32,464.11h-4.39V436.47h-4V433.3h12.43v3.17h-4Z" transform="translate(-154.91 -132.84)"/><path class="cls-1" d="M636,464.11h-4.39V433.3H636Z" transform="translate(-154.91 -132.84)"/><path class="cls-1" d="M653.16,464.11c-3.74,0-6-1.84-6-4.91V437.88c0-3.08,2.23-4.91,6-4.91s6,1.83,6,4.91V459.2C659.15,462.27,656.91,464.11,653.16,464.11Zm0-28c-.48,0-1.61,0-1.61,1.65v21.5c0,1.65,1.09,1.65,1.61,1.65s1.6,0,1.6-1.65v-21.5C654.76,436.14,653.68,436.14,653.16,436.14Z" transform="translate(-154.91 -132.84)"/><path class="cls-1" d="M682.6,464.11h-5.66l-2.43-15.66v15.66h-4.15V433.3H676l2.47,15.86V433.3h4.11Z" transform="translate(-154.91 -132.84)"/></svg>