<svg id="Слой_1" data-name="Слой 1" xmlns="http://www.w3.org/2000/svg" xmlns:xlink="http://www.w3.org/1999/xlink" viewBox="0 0 307.93 66.51"><defs><style>.cls-1{fill:#323366;}.cls-2{fill:url(#linear-gradient);}.cls-3{fill:url(#Gradient_bez_nazwy_13);}.cls-4{fill:url(#Gradient_bez_nazwy_71);}.cls-5{fill:url(#Gradient_bez_nazwy_38);}.cls-6{fill:url(#Gradient_bez_nazwy_13-2);}.cls-7{fill:url(#Gradient_bez_nazwy_38-2);}.cls-8{fill:#57595b;}.cls-9{fill:#3295c9;}</style><linearGradient id="linear-gradient" y1="12.2" x2="47.79" y2="12.2" gradientUnits="userSpaceOnUse"><stop offset="0" stop-color="#2da7df"/><stop offset="0.99" stop-color="#146199"/></linearGradient><linearGradient id="Gradient_bez_nazwy_13" x1="10.37" y1="33.32" x2="47.79" y2="33.32" xlink:href="#linear-gradient"/><linearGradient id="Gradient_bez_nazwy_71" x1="102.82" y1="12.2" x2="55.03" y2="12.2" gradientUnits="userSpaceOnUse"><stop offset="0.01" stop-color="#076eb5"/><stop offset="1" stop-color="#323366"/></linearGradient><linearGradient id="Gradient_bez_nazwy_38" x1="96.13" y1="33.32" x2="55.03" y2="33.32" gradientUnits="userSpaceOnUse"><stop offset="0.01" stop-color="#076eb5"/><stop offset="1" stop-color="#1f2f57"/></linearGradient><linearGradient id="Gradient_bez_nazwy_13-2" y1="54.8" x2="47.79" y2="54.8" xlink:href="#linear-gradient"/><linearGradient id="Gradient_bez_nazwy_38-2" x1="73.56" y1="54.8" x2="55.03" y2="54.8" xlink:href="#Gradient_bez_nazwy_38"/></defs><title>logo</title><path class="cls-1" d="M226,91.08a9.39,9.39,0,0,1-.3,2.34,6.41,6.41,0,0,1-1,2.13,6.76,6.76,0,0,1-1.75,1.7,7.79,7.79,0,0,1-2.6,1.1v.27a10.52,10.52,0,0,1,2.56.76,6.5,6.5,0,0,1,2.1,1.48,6.88,6.88,0,0,1,1.42,2.29,9,9,0,0,1,.51,3.19,8.16,8.16,0,0,1-1,4.19,8.6,8.6,0,0,1-2.76,2.9,12.91,12.91,0,0,1-3.92,1.66,19,19,0,0,1-4.54.53h-1.95q-1.19,0-2.55-.06c-.92,0-1.84-.11-2.79-.2a19.94,19.94,0,0,1-2.58-.41V84c.57-.09,1.22-.18,2-.27s1.51-.16,2.35-.22,1.7-.11,2.58-.14,1.76,0,2.63,0a26.21,26.21,0,0,1,4.28.34,12,12,0,0,1,3.72,1.19A6.76,6.76,0,0,1,225,87.22,7,7,0,0,1,226,91.08ZM212.68,97c.43,0,.92,0,1.49,0a12.9,12.9,0,0,0,1.39-.14,8.31,8.31,0,0,0,3-1.6,3.48,3.48,0,0,0,1.26-2.79,3.58,3.58,0,0,0-.46-1.91,3.31,3.31,0,0,0-1.21-1.2,5.18,5.18,0,0,0-1.72-.62,10.89,10.89,0,0,0-2-.18c-.79,0-1.53,0-2.2,0a13.68,13.68,0,0,0-1.55.14V97Zm2,13.5a8.79,8.79,0,0,0,2.18-.26,5.82,5.82,0,0,0,1.86-.82A4.35,4.35,0,0,0,220,108a3.88,3.88,0,0,0,.49-2,3.62,3.62,0,0,0-2.11-3.62,6.32,6.32,0,0,0-2.11-.6,20.09,20.09,0,0,0-2.33-.13h-3.27v8.57a2.73,2.73,0,0,0,.71.13l1.06.07,1.17,0C214,110.46,214.36,110.46,214.66,110.46Z" transform="translate(-82.3 -79.12)"/><path class="cls-1" d="M231.75,84.08q1-.18,2.22-.33c.8-.11,1.59-.19,2.38-.25s1.57-.11,2.31-.14,1.44,0,2.07,0a21.63,21.63,0,0,1,4.33.43,11.61,11.61,0,0,1,3.81,1.45A7.74,7.74,0,0,1,251.56,88a8.49,8.49,0,0,1,1,4.35,12.69,12.69,0,0,1-.38,3.34,9.06,9.06,0,0,1-1.05,2.49A7.51,7.51,0,0,1,249.5,100a14,14,0,0,1-2.09,1.42L255,115.18h-7.09l-6.33-12.3H237.9v12.3h-6.15Zm9.43,4.71c-.63,0-1.25,0-1.87,0a7,7,0,0,0-1.41.18v9.11h2.42A7,7,0,0,0,244.5,97a4.45,4.45,0,0,0,1.61-3.86,4.08,4.08,0,0,0-1.25-3.16A5.27,5.27,0,0,0,241.18,88.79Z" transform="translate(-82.3 -79.12)"/><path class="cls-1" d="M259,83.77h20.6v5.47H265.18v7.32h13.33V102H265.18v7.67h14.67v5.48H259Z" transform="translate(-82.3 -79.12)"/><path class="cls-1" d="M285.06,83.77l1.41-.14c.67-.06,1.44-.11,2.29-.15s1.73-.09,2.65-.12,1.72,0,2.44,0a17.08,17.08,0,0,1,6.91,1.21,10.69,10.69,0,0,1,4.33,3.34,12.94,12.94,0,0,1,2.22,5,29.63,29.63,0,0,1,.63,6.3,29,29,0,0,1-.63,6.06,14,14,0,0,1-2.27,5.27,11.77,11.77,0,0,1-4.53,3.73,17,17,0,0,1-7.42,1.41c-.48,0-1.09,0-1.84,0s-1.51-.06-2.29-.11l-2.24-.13c-.72,0-1.28-.1-1.66-.16Zm9,5c-.56,0-1.12,0-1.66.07L291.2,89v21a2.9,2.9,0,0,0,.54.06l.74,0,.74,0,.59,0a7.84,7.84,0,0,0,4.15-1,6.11,6.11,0,0,0,2.31-2.53,11.11,11.11,0,0,0,1-3.55,34.74,34.74,0,0,0,.23-4,33.76,33.76,0,0,0-.2-3.54,10.2,10.2,0,0,0-.95-3.37,6.28,6.28,0,0,0-2.22-2.51A7.16,7.16,0,0,0,294.07,88.79Z" transform="translate(-82.3 -79.12)"/><path class="cls-1" d="M328.31,109.69h5.56v5.49H313.23V83.77h6.15V109.7h8.93Z" transform="translate(-82.3 -79.12)"/><path class="cls-1" d="M339.79,83.77h20.6v5.47H345.94v7.32h13.33V102H345.94v7.67h14.67v5.48H339.79Z" transform="translate(-82.3 -79.12)"/><path class="cls-1" d="M374,103.6,363.84,83.77h7.32l6,13h.23l6.19-13h6.6l-10.1,19.79v11.62H374Z" transform="translate(-82.3 -79.12)"/><path class="cls-2" d="M2,4.81H47.79a0,0,0,0,1,0,0V19.58a0,0,0,0,1,0,0H2a2,2,0,0,1-2-2V6.78a2,2,0,0,1,2-2Z"/><path class="cls-3" d="M12.34,25.94H47.79a0,0,0,0,1,0,0V40.7a0,0,0,0,1,0,0H12.34a2,2,0,0,1-2-2V27.9a2,2,0,0,1,2-2Z"/><path class="cls-4" d="M55,4.81h45.82a2,2,0,0,1,2,2V17.61a2,2,0,0,1-2,2H55a0,0,0,0,1,0,0V4.81a0,0,0,0,1,0,0Z"/><path class="cls-5" d="M55,25.94H94.16a2,2,0,0,1,2,2V38.73a2,2,0,0,1-2,2H55a0,0,0,0,1,0,0V25.94A0,0,0,0,1,55,25.94Z"/><path class="cls-6" d="M2,47.41H47.79a0,0,0,0,1,0,0V62.18a0,0,0,0,1,0,0H2a2,2,0,0,1-2-2V49.38a2,2,0,0,1,2-2Z"/><path class="cls-7" d="M55,47.41H71.59a2,2,0,0,1,2,2V60.21a2,2,0,0,1-2,2H55a0,0,0,0,1,0,0V47.41A0,0,0,0,1,55,47.41Z"/><path class="cls-8" d="M133.4,79.12c.24,11,.33,22,.42,33l.06,16.51c0,5.5,0,11,0,16.51l-.47-.47,12.93,0,12.93.1,12.93.13,12.93.21-12.93.2-12.93.13-12.93.1-12.93,0h-.47v-.47c0-5.51,0-11,0-16.51l.05-16.51C133.06,101.13,133.16,90.12,133.4,79.12Z" transform="translate(-82.3 -79.12)"/><path class="cls-9" d="M224.25,143.66h-1.52v-10h-13v10h-1.51V122.84h1.51v9.72h13v-9.72h1.52Z" transform="translate(-82.3 -79.12)"/><path class="cls-9" d="M256.54,133.25a12.6,12.6,0,0,1-.72,4.37,9.78,9.78,0,0,1-2,3.36,9,9,0,0,1-3.14,2.15,11.23,11.23,0,0,1-8.07,0,9.06,9.06,0,0,1-3.14-2.15,9.78,9.78,0,0,1-2-3.36,13.62,13.62,0,0,1,0-8.74,9.83,9.83,0,0,1,2-3.35,9.09,9.09,0,0,1,3.14-2.16,11.09,11.09,0,0,1,8.07,0,8.84,8.84,0,0,1,3.14,2.15,9.88,9.88,0,0,1,2,3.36A12.64,12.64,0,0,1,256.54,133.25Zm-1.56,0a12,12,0,0,0-.6-3.92,8.29,8.29,0,0,0-1.71-2.94,7.42,7.42,0,0,0-2.65-1.85,9.38,9.38,0,0,0-6.81,0,7.63,7.63,0,0,0-2.66,1.85,8.46,8.46,0,0,0-1.72,2.94,12.9,12.9,0,0,0,0,7.84,8.41,8.41,0,0,0,1.72,2.93,7.35,7.35,0,0,0,2.66,1.84,9.38,9.38,0,0,0,6.81,0,7.15,7.15,0,0,0,2.65-1.84,8.24,8.24,0,0,0,1.71-2.93A11.91,11.91,0,0,0,255,133.25Z" transform="translate(-82.3 -79.12)"/><path class="cls-9" d="M270.5,142.38h9.86v1.28H269V122.84h1.51Z" transform="translate(-82.3 -79.12)"/><path class="cls-9" d="M309.07,133.25a12.35,12.35,0,0,1-.72,4.34,9.42,9.42,0,0,1-2,3.28,8.91,8.91,0,0,1-3.15,2.07,10.92,10.92,0,0,1-4,.72h-7.6V122.84h7.6a10.92,10.92,0,0,1,4,.73,8.91,8.91,0,0,1,3.15,2.07,9.42,9.42,0,0,1,2,3.28A12.33,12.33,0,0,1,309.07,133.25Zm-1.56,0a11.47,11.47,0,0,0-.61-3.89,8.15,8.15,0,0,0-1.7-2.88,7.38,7.38,0,0,0-2.65-1.8,9.17,9.17,0,0,0-3.42-.61H293v18.37h6.09a9,9,0,0,0,3.42-.62A7.36,7.36,0,0,0,305.2,140a8.15,8.15,0,0,0,1.7-2.88A11.49,11.49,0,0,0,307.51,133.25Z" transform="translate(-82.3 -79.12)"/><path class="cls-9" d="M323.06,143.66h-1.52V122.84h1.52Z" transform="translate(-82.3 -79.12)"/><path class="cls-9" d="M337.93,122.9a.77.77,0,0,1,.24.22l13.49,18a8.32,8.32,0,0,1,0-.85V122.84h1.31v20.82h-.71a.76.76,0,0,1-.32-.06.85.85,0,0,1-.24-.23l-13.52-18.05a8,8,0,0,1,0,.82v17.52h-1.32V122.84h.75A.7.7,0,0,1,337.93,122.9Z" transform="translate(-82.3 -79.12)"/><path class="cls-9" d="M380,143.31a12.59,12.59,0,0,1-4,.59,12.25,12.25,0,0,1-4.45-.76,9.46,9.46,0,0,1-3.36-2.15,9.11,9.11,0,0,1-2.13-3.36,12.2,12.2,0,0,1-.75-4.38,12.65,12.65,0,0,1,.73-4.38,9.34,9.34,0,0,1,2.09-3.35,9.17,9.17,0,0,1,3.29-2.15,11.66,11.66,0,0,1,4.34-.76,13.61,13.61,0,0,1,2.2.16,10.55,10.55,0,0,1,1.88.48,8.87,8.87,0,0,1,1.61.78A10.41,10.41,0,0,1,383,125.1l-.42.64a.42.42,0,0,1-.61.17,3,3,0,0,1-.64-.42,6.34,6.34,0,0,0-1.13-.67,9.64,9.64,0,0,0-1.79-.64,10.62,10.62,0,0,0-2.59-.28,9.92,9.92,0,0,0-3.67.65,7.64,7.64,0,0,0-2.8,1.86,8.19,8.19,0,0,0-1.78,2.94,11.4,11.4,0,0,0-.63,3.9,11.59,11.59,0,0,0,.63,3.94,8.1,8.1,0,0,0,1.81,3,7.77,7.77,0,0,0,2.88,1.87,10.57,10.57,0,0,0,3.81.65,12.94,12.94,0,0,0,1.71-.11,11.35,11.35,0,0,0,1.5-.33,10.4,10.4,0,0,0,1.38-.54c.45-.21.9-.45,1.37-.71v-5.61h-4a.36.36,0,0,1-.27-.1.3.3,0,0,1-.11-.24v-.82h5.73v7.4A12.69,12.69,0,0,1,380,143.31Z" transform="translate(-82.3 -79.12)"/></svg>