<?xml version="1.0" encoding="UTF-8" standalone="no"?>
<svg
   xmlns:dc="http://purl.org/dc/elements/1.1/"
   xmlns:cc="http://creativecommons.org/ns#"
   xmlns:rdf="http://www.w3.org/1999/02/22-rdf-syntax-ns#"
   xmlns:svg="http://www.w3.org/2000/svg"
   xmlns="http://www.w3.org/2000/svg"
   xmlns:sodipodi="http://sodipodi.sourceforge.net/DTD/sodipodi-0.dtd"
   xmlns:inkscape="http://www.inkscape.org/namespaces/inkscape"
   id="Слой_1"
   data-name="Слой 1"
   viewBox="0 0 75.15 75.17"
   version="1.1"
   sodipodi:docname="arrow_back.svg"
   inkscape:version="0.92.3 (2405546, 2018-03-11)">
  <metadata
     id="metadata3788">
    <rdf:RDF>
      <cc:Work
         rdf:about="">
        <dc:format>image/svg+xml</dc:format>
        <dc:type
           rdf:resource="http://purl.org/dc/dcmitype/StillImage" />
      </cc:Work>
    </rdf:RDF>
  </metadata>
  <sodipodi:namedview
     pagecolor="#ffffff"
     bordercolor="#666666"
     borderopacity="1"
     objecttolerance="10"
     gridtolerance="10"
     guidetolerance="10"
     inkscape:pageopacity="0"
     inkscape:pageshadow="2"
     inkscape:window-width="1920"
     inkscape:window-height="1053"
     id="namedview3786"
     showgrid="false"
     inkscape:zoom="11.414128"
     inkscape:cx="37.575001"
     inkscape:cy="37.584999"
     inkscape:window-x="0"
     inkscape:window-y="0"
     inkscape:window-maximized="1"
     inkscape:current-layer="Слой_1" />
  <defs
     id="defs3779">
    <style
       id="style3777">.cls-1{fill:#c7c7c7;}</style>
  </defs>
  <title
     id="title3781">arrow</title>
  <path
     class="cls-1"
     d="m 0.3591633,38.68 a 3,3 0 0 1 0,-2.2 3.09,3.09 0 0 1 0.63,-0.95 L 35.679163,0.84 a 2.91,2.91 0 0 1 4.09,0 2.88,2.88 0 0 1 0,4.08 l -29.76,29.76 h 62.41 a 2.9,2.9 0 0 1 0,5.79 h -62.41 l 29.76,29.75 a 2.9,2.9 0 1 1 -4.09,4.1 L 0.9891633,39.62 a 3,3 0 0 1 -0.63,-0.94 z m 0,0"
     id="path3783"
     inkscape:connector-curvature="0"
     style="fill:#c7c7c7" />
</svg>
